<svg width="24" height="25" viewBox="0 0 24 25" fill="none" xmlns="http://www.w3.org/2000/svg">
<path d="M10 12.5C10 13.0304 10.2107 13.5391 10.5858 13.9142C10.9609 14.2893 11.4696 14.5 12 14.5C12.5304 14.5 13.0391 14.2893 13.4142 13.9142C13.7893 13.5391 14 13.0304 14 12.5C14 11.9696 13.7893 11.4609 13.4142 11.0858C13.0391 10.7107 12.5304 10.5 12 10.5C11.4696 10.5 10.9609 10.7107 10.5858 11.0858C10.2107 11.4609 10 11.9696 10 12.5Z" stroke="#27272A" stroke-width="1.5" stroke-linecap="round" stroke-linejoin="round"/>
<path d="M21 12.5C18.6 16.5 15.6 18.5 12 18.5C8.4 18.5 5.4 16.5 3 12.5C5.4 8.5 8.4 6.5 12 6.5C15.6 6.5 18.6 8.5 21 12.5Z" stroke="#27272A" stroke-width="1.5" stroke-linecap="round" stroke-linejoin="round"/>
</svg>
