<svg width="24" height="25" viewBox="0 0 24 25" fill="none" xmlns="http://www.w3.org/2000/svg">
<g id="tabler:mail">
<g id="Group">
<path id="Vector" d="M3 7.5C3 6.96957 3.21071 6.46086 3.58579 6.08579C3.96086 5.71071 4.46957 5.5 5 5.5H19C19.5304 5.5 20.0391 5.71071 20.4142 6.08579C20.7893 6.46086 21 6.96957 21 7.5V17.5C21 18.0304 20.7893 18.5391 20.4142 18.9142C20.0391 19.2893 19.5304 19.5 19 19.5H5C4.46957 19.5 3.96086 19.2893 3.58579 18.9142C3.21071 18.5391 3 18.0304 3 17.5V7.5Z" stroke="#27272A" stroke-width="1.5" stroke-linecap="round" stroke-linejoin="round"/>
<path id="Vector_2" d="M3 7.5L12 13.5L21 7.5" stroke="#27272A" stroke-width="1.5" stroke-linecap="round" stroke-linejoin="round"/>
</g>
</g>
</svg>
