<svg width="121" height="32" viewBox="0 0 121 32" fill="none" xmlns="http://www.w3.org/2000/svg">
<rect width="31.9999" height="32" rx="12" fill="#009EFF"/>
<rect x="9.84656" y="22.1538" width="2.46153" height="2.46153" fill="white"/>
<rect x="12.3075" y="22.1538" width="2.46153" height="2.46153" fill="white"/>
<rect x="14.7694" y="22.1538" width="2.46153" height="2.46153" fill="white"/>
<rect x="17.231" y="22.1538" width="2.46153" height="2.46153" fill="white"/>
<rect x="19.6926" y="22.1538" width="2.46153" height="2.46153" fill="white"/>
<rect x="22.1538" y="19.6923" width="2.46153" height="2.46153" fill="white"/>
<rect x="22.1538" y="17.2308" width="2.46153" height="2.46153" fill="white"/>
<rect x="19.6926" y="14.7692" width="2.46153" height="2.46153" fill="white"/>
<rect x="17.231" y="12.3077" width="2.46153" height="2.46153" fill="white"/>
<rect x="17.231" y="9.84601" width="2.46153" height="2.46153" fill="white"/>
<rect x="12.3075" y="12.3077" width="2.46153" height="2.46153" fill="white"/>
<rect x="12.3075" y="9.8461" width="2.46153" height="2.46153" fill="white"/>
<rect x="17.231" y="7.38458" width="2.46153" height="2.46153" fill="white"/>
<rect x="9.84656" y="7.38458" width="2.46153" height="2.46153" fill="white"/>
<rect x="9.84656" y="14.7692" width="2.46153" height="2.46153" fill="white"/>
<rect x="7.38464" y="19.6923" width="2.76922" height="2.46153" fill="white"/>
<rect x="7.38464" y="17.2308" width="2.76922" height="2.46153" fill="white"/>
<rect x="10.1539" y="17.2308" width="4.61537" height="2.46153" fill="#99DCFF"/>
<rect x="14.7694" y="17.2307" width="7.3846" height="2.46153" fill="#4CC2FF"/>
<rect x="10.1539" y="19.6923" width="12" height="2.46153" fill="#99DCFF"/>
<path d="M44.3977 20.892L44.3891 17.1676H44.8835L49.588 11.9091H53.1931L47.4062 18.3523H46.767L44.3977 20.892ZM41.5852 25V7.54545H44.6704V25H41.5852ZM49.8011 25L45.5397 19.0426L47.6193 16.8693L53.4914 25H49.8011ZM59.0656 25.2557C57.7531 25.2557 56.6196 24.983 55.6651 24.4375C54.7162 23.8864 53.9861 23.108 53.4747 22.1023C52.9633 21.0909 52.7077 19.9006 52.7077 18.5312C52.7077 17.1847 52.9633 16.0028 53.4747 14.9858C53.9918 13.9631 54.7133 13.1676 55.6395 12.5994C56.5656 12.0256 57.6537 11.7386 58.9037 11.7386C59.7105 11.7386 60.4719 11.8693 61.1878 12.1307C61.9094 12.3864 62.5457 12.7841 63.0969 13.3239C63.6537 13.8636 64.0912 14.5511 64.4094 15.3864C64.7276 16.2159 64.8866 17.2045 64.8866 18.3523V19.2983H54.1565V17.2188H61.9293C61.9236 16.6278 61.7957 16.1023 61.5457 15.642C61.2957 15.1761 60.9463 14.8097 60.4974 14.5426C60.0543 14.2756 59.5372 14.142 58.9463 14.142C58.3156 14.142 57.7616 14.2955 57.2844 14.6023C56.8071 14.9034 56.4349 15.3011 56.1679 15.7955C55.9065 16.2841 55.773 16.821 55.7673 17.4062V19.2216C55.7673 19.983 55.9065 20.6364 56.1849 21.1818C56.4633 21.7216 56.8526 22.1364 57.3526 22.4261C57.8526 22.7102 58.4378 22.8523 59.1082 22.8523C59.5571 22.8523 59.9633 22.7898 60.327 22.6648C60.6906 22.5341 61.006 22.3438 61.273 22.0938C61.5401 21.8438 61.7418 21.5341 61.8781 21.1648L64.7588 21.4886C64.577 22.25 64.2304 22.9148 63.719 23.483C63.2133 24.0455 62.5656 24.483 61.7758 24.7955C60.9861 25.1023 60.0827 25.2557 59.0656 25.2557ZM67.5993 29.9091C67.1789 29.9091 66.7897 29.875 66.4317 29.8068C66.0795 29.7443 65.7982 29.6705 65.588 29.5852L66.3039 27.1818C66.7528 27.3125 67.1533 27.375 67.5056 27.3693C67.8579 27.3636 68.1675 27.2528 68.4346 27.0369C68.7073 26.8267 68.9374 26.4744 69.1249 25.9801L69.3891 25.2727L64.642 11.9091H67.9147L70.9317 21.7955H71.0681L74.0937 11.9091H77.3749L72.1334 26.5852C71.8891 27.2784 71.5653 27.8722 71.1618 28.3665C70.7584 28.8665 70.2641 29.2472 69.6789 29.5085C69.0993 29.7756 68.4062 29.9091 67.5993 29.9091ZM88.4164 15.3693L85.6039 15.6761C85.5244 15.392 85.3852 15.125 85.1863 14.875C84.9931 14.625 84.7318 14.4233 84.4022 14.2699C84.0727 14.1165 83.6693 14.0398 83.192 14.0398C82.55 14.0398 82.0102 14.179 81.5727 14.4574C81.1409 14.7358 80.9278 15.0966 80.9335 15.5398C80.9278 15.9205 81.067 16.2301 81.3511 16.4688C81.6409 16.7074 82.1181 16.9034 82.7829 17.0568L85.0159 17.5341C86.2545 17.8011 87.175 18.2244 87.7772 18.804C88.3852 19.3835 88.692 20.142 88.6977 21.0795C88.692 21.9034 88.4505 22.6307 87.9733 23.2614C87.5017 23.8864 86.8454 24.375 86.0045 24.7273C85.1636 25.0795 84.1977 25.2557 83.1068 25.2557C81.5045 25.2557 80.2147 24.9205 79.2375 24.25C78.2602 23.5739 77.6778 22.6335 77.4903 21.429L80.4988 21.1392C80.6352 21.7301 80.925 22.1761 81.3681 22.4773C81.8113 22.7784 82.388 22.929 83.0983 22.929C83.8312 22.929 84.4193 22.7784 84.8625 22.4773C85.3113 22.1761 85.5358 21.804 85.5358 21.3608C85.5358 20.9858 85.3909 20.6761 85.1011 20.4318C84.817 20.1875 84.3738 20 83.7716 19.8693L81.5386 19.4006C80.2829 19.1392 79.3539 18.6989 78.7517 18.0795C78.1494 17.4545 77.8511 16.6648 77.8568 15.7102C77.8511 14.9034 78.0699 14.2045 78.513 13.6136C78.9619 13.017 79.5841 12.5568 80.3795 12.233C81.1806 11.9034 82.1039 11.7386 83.1494 11.7386C84.6835 11.7386 85.8909 12.0653 86.7716 12.7188C87.6579 13.3722 88.2062 14.2557 88.4164 15.3693ZM92.887 7.54545V25H89.8017V7.54545H92.887ZM98.3866 25.2642C97.557 25.2642 96.8099 25.1165 96.1451 24.821C95.486 24.5199 94.9633 24.0767 94.5769 23.4915C94.1962 22.9062 94.0059 22.1847 94.0059 21.3267C94.0059 20.5881 94.1423 19.9773 94.415 19.4943C94.6877 19.0114 95.0599 18.625 95.5315 18.3352C96.0031 18.0455 96.5343 17.8267 97.1252 17.679C97.7218 17.5256 98.3383 17.4148 98.9747 17.3466C99.7417 17.267 100.364 17.196 100.841 17.1335C101.318 17.0653 101.665 16.9631 101.881 16.8267C102.102 16.6847 102.213 16.4659 102.213 16.1705V16.1193C102.213 15.4773 102.023 14.9801 101.642 14.6278C101.262 14.2756 100.713 14.0994 99.9974 14.0994C99.2417 14.0994 98.6423 14.2642 98.1991 14.5938C97.7616 14.9233 97.4661 15.3125 97.3127 15.7614L94.432 15.3523C94.6593 14.5568 95.0343 13.892 95.557 13.358C96.0798 12.8182 96.719 12.4148 97.4747 12.1477C98.2303 11.875 99.0656 11.7386 99.9803 11.7386C100.611 11.7386 101.239 11.8125 101.864 11.9602C102.489 12.108 103.06 12.3523 103.577 12.6932C104.094 13.0284 104.509 13.4858 104.821 14.0653C105.139 14.6449 105.299 15.3693 105.299 16.2386V25H102.333V23.2017H102.23C102.043 23.5653 101.779 23.9062 101.438 24.2244C101.102 24.5369 100.679 24.7898 100.168 24.983C99.6622 25.1705 99.0684 25.2642 98.3866 25.2642ZM99.1877 22.9972C99.807 22.9972 100.344 22.875 100.799 22.6307C101.253 22.3807 101.602 22.0511 101.847 21.642C102.097 21.233 102.222 20.7869 102.222 20.304V18.7614C102.125 18.8409 101.96 18.9148 101.727 18.983C101.5 19.0511 101.245 19.1108 100.96 19.1619C100.676 19.2131 100.395 19.2585 100.117 19.2983C99.8383 19.3381 99.5968 19.3722 99.3923 19.4006C98.932 19.4631 98.5201 19.5653 98.1565 19.7074C97.7928 19.8494 97.5059 20.0483 97.2957 20.304C97.0854 20.554 96.9803 20.8778 96.9803 21.2756C96.9803 21.8438 97.1877 22.2727 97.6025 22.5625C98.0173 22.8523 98.5457 22.9972 99.1877 22.9972ZM107.097 25V7.54545H110.182V14.0739H110.31C110.469 13.7557 110.694 13.4176 110.984 13.0597C111.273 12.696 111.665 12.3864 112.16 12.1307C112.654 11.8693 113.285 11.7386 114.052 11.7386C115.063 11.7386 115.975 11.9972 116.787 12.5142C117.606 13.0256 118.253 13.7841 118.731 14.7898C119.214 15.7898 119.455 17.017 119.455 18.4716C119.455 19.9091 119.219 21.1307 118.748 22.1364C118.276 23.142 117.634 23.9091 116.822 24.4375C116.009 24.9659 115.089 25.2301 114.06 25.2301C113.31 25.2301 112.688 25.1051 112.194 24.8551C111.699 24.6051 111.302 24.304 111.001 23.9517C110.705 23.5937 110.475 23.2557 110.31 22.9375H110.131V25H107.097ZM110.123 18.4545C110.123 19.3011 110.242 20.0426 110.481 20.679C110.725 21.3153 111.074 21.8125 111.529 22.1705C111.989 22.5227 112.546 22.6989 113.199 22.6989C113.881 22.6989 114.452 22.517 114.912 22.1534C115.373 21.7841 115.719 21.2812 115.952 20.6449C116.191 20.0028 116.31 19.2727 116.31 18.4545C116.31 17.642 116.194 16.9205 115.961 16.2898C115.728 15.6591 115.381 15.1648 114.921 14.8068C114.461 14.4489 113.887 14.2699 113.199 14.2699C112.54 14.2699 111.981 14.4432 111.52 14.7898C111.06 15.1364 110.711 15.6222 110.472 16.2472C110.239 16.8722 110.123 17.608 110.123 18.4545Z" fill="#FAFAFA"/>
</svg>
